<svg viewBox="173.164 193.703 113.1 111.4" xmlns="http://www.w3.org/2000/svg" fill="white"><path d="M 199.864 283.003 C 199.863 282.66 199.717 282.334 199.464 282.103 C 198.448 281.392 197.044 282.047 196.936 283.282 C 196.901 283.683 197.018 284.084 197.264 284.403 C 197.549 284.695 197.97 284.809 198.364 284.703 L 198.564 285.803 C 197.9 285.932 197.217 285.705 196.764 285.203 C 195.659 284.217 195.659 282.489 196.764 281.503 C 197.746 280.427 199.425 280.382 200.464 281.403 C 200.893 281.828 201.143 282.4 201.164 283.003 L 199.864 283.003 Z"/><path d="M 203.064 284.003 L 203.764 284.503 L 202.364 289.703 L 201.464 289.003 L 201.764 287.903 L 200.234 286.803 L 199.234 287.403 L 198.334 286.703 L 203.064 284.003 Z M 202.564 285.403 L 201.164 286.303 L 202.064 287.003 L 202.564 285.403 Z"/><path d="M 205.864 286.103 L 207.364 287.003 C 208.064 287.403 208.764 288.103 208.164 289.003 C 207.894 289.446 207.36 289.652 206.864 289.503 C 207.353 289.885 207.481 290.571 207.164 291.103 C 206.664 292.003 205.664 291.803 204.964 291.303 L 203.264 290.303 L 205.864 286.103 Z M 204.664 290.103 L 205.464 290.603 C 205.738 290.83 206.146 290.785 206.364 290.503 C 206.564 290.103 206.264 289.803 205.964 289.603 L 205.234 289.173 L 204.664 290.103 Z M 205.664 288.303 L 206.264 288.703 C 206.502 288.931 206.889 288.883 207.064 288.603 C 207.264 288.203 207.064 288.003 206.764 287.803 L 206.164 287.403 L 205.664 288.303 Z"/><path d="M 209.764 288.403 L 211.464 289.203 C 212.364 289.603 212.964 290.303 212.464 291.303 C 212.235 291.908 211.593 292.25 210.964 292.103 L 211.164 294.503 L 210.064 294.003 L 210.064 291.803 L 209.564 291.603 L 208.664 293.403 L 207.764 292.903 L 209.764 288.403 Z M 209.764 290.703 L 210.364 291.003 C 210.664 291.203 211.164 291.403 211.364 290.903 C 211.564 290.403 211.264 290.203 210.864 290.003 L 210.264 289.703 L 209.764 290.703 Z"/><path d="M 213.864 290.303 L 214.864 290.703 L 213.064 295.303 L 212.064 294.903 L 213.864 290.303 Z"/><path d="M 215.964 291.173 L 217.364 291.573 L 218.364 295.473 L 219.364 292.173 L 220.364 292.473 L 218.964 297.273 L 217.664 296.873 L 216.664 292.873 L 215.664 296.273 L 214.664 295.973 L 215.964 291.173 Z"/><path d="M 221.564 292.703 L 222.564 292.903 L 221.664 297.803 L 220.664 297.603 L 221.564 292.703 Z"/><path d="M 229.764 296.703 C 229.813 297.854 228.804 298.767 227.664 298.603 C 226.492 298.604 225.593 297.563 225.764 296.403 L 225.964 293.403 L 226.964 293.503 L 226.764 296.503 C 226.764 297.103 227.064 297.603 227.664 297.603 C 228.231 297.641 228.701 297.17 228.664 296.603 L 228.864 293.603 L 229.864 293.703 L 229.764 296.703 Z"/><path d="M 230.964 293.603 L 232.364 293.503 L 234.564 296.803 L 234.364 293.403 L 235.364 293.303 L 235.664 298.203 L 234.264 298.303 L 231.964 294.903 L 232.164 298.403 L 231.164 298.503 L 230.964 293.603 Z"/><path d="M 236.664 293.173 L 237.664 292.973 L 238.364 297.873 L 237.364 298.073 L 236.664 293.173 Z"/><path d="M 238.364 293.003 L 239.564 292.703 L 241.464 295.603 L 241.864 292.203 L 242.964 291.903 L 242.164 297.203 L 241.364 297.403 L 238.364 293.003 Z"/><path d="M 243.564 291.703 L 246.664 290.603 L 246.964 291.603 L 244.864 292.303 L 245.164 293.203 L 247.164 292.503 L 247.464 293.503 L 245.464 294.203 L 245.764 295.203 L 247.964 294.403 L 248.264 295.403 L 245.064 296.503 L 243.564 291.703 Z"/><path d="M 247.764 290.173 L 249.464 289.373 C 250.364 288.973 251.264 288.973 251.764 289.973 C 252.098 290.557 251.923 291.3 251.364 291.673 L 253.364 293.073 L 252.264 293.573 L 250.564 292.173 L 250.064 292.373 L 250.864 294.173 L 249.864 294.573 L 247.764 290.173 Z M 249.664 291.573 L 250.264 291.273 C 250.564 291.073 251.064 290.873 250.864 290.373 C 250.664 289.873 250.264 290.073 249.864 290.173 L 249.264 290.473 L 249.664 291.573 Z"/><path d="M 254.664 288.003 C 254.394 287.93 254.107 287.966 253.864 288.103 C 253.564 288.303 253.364 288.603 253.564 288.903 C 254.064 289.703 255.664 288.103 256.464 289.603 C 257.064 290.603 256.564 291.403 255.664 291.903 C 255.151 292.203 254.548 292.309 253.964 292.203 L 254.164 291.103 C 254.495 291.221 254.862 291.184 255.164 291.003 C 255.461 290.857 255.625 290.53 255.564 290.203 C 255.064 289.403 253.464 291.003 252.564 289.603 C 252.103 288.777 252.421 287.733 253.264 287.303 C 253.707 287.015 254.244 286.907 254.764 287.003 L 254.664 288.003 Z"/><path d="M 255.564 285.903 L 256.464 285.303 L 259.264 289.403 L 258.364 290.003 L 255.564 285.903 Z"/><path d="M 258.764 284.803 L 257.664 285.703 L 257.064 284.903 L 259.964 282.503 L 260.564 283.303 L 259.464 284.203 L 261.964 287.303 L 261.164 288.003 L 258.764 284.803 Z"/><path d="M 263.464 283.173 L 260.164 282.373 L 261.064 281.473 L 263.064 282.073 L 262.564 279.973 L 263.464 279.073 L 264.164 282.373 L 265.664 283.873 L 264.964 284.573 L 263.464 283.173 Z"/><g transform="matrix(1, 0, 0, 1, 169.23361206054688, 190.17333984375)"><g><g><g><g><path d="M61.33 114.93c-30.7 0-57.4-25-57.4-55.7s29.4-55.7 55.7-55.7c30.7 0 57.4 25 57.4 55.7a55.78 55.78 0 0 1-55.7 55.7zm0-109c-29.4 0-54.9 23.9-54.9 53.3s25.5 53.3 54.9 53.3a53.3 53.3 0 1 0 0-106.6z"/></g></g></g></g></g><path d="M 230.234 207.903 C 199.211 207.926 179.846 241.524 195.378 268.379 C 210.909 295.234 249.688 295.206 265.179 268.327 C 268.712 262.198 270.569 255.247 270.564 248.173 C 270.509 225.932 252.475 207.925 230.234 207.903 Z M 251.234 220.403 C 251.237 219.218 252.522 218.48 253.547 219.076 C 253.612 219.114 253.675 219.156 253.734 219.203 C 256.483 221.419 258.907 224.012 260.934 226.903 C 261.604 227.872 260.974 229.203 259.8 229.299 C 259.745 229.303 259.689 229.305 259.634 229.303 L 254.234 229.303 C 252.526 229.292 251.145 227.911 251.134 226.203 L 251.134 220.403 L 251.234 220.403 Z M 238.664 226.173 C 238.653 227.881 237.271 229.262 235.564 229.273 L 221.064 229.273 L 221.064 229.373 C 220.994 230.403 221.276 231.425 221.864 232.273 L 221.964 232.373 C 223.764 233.673 226.364 237.673 223.864 243.373 L 235.564 243.373 C 237.271 243.384 238.653 244.766 238.664 246.473 L 238.664 283.573 C 238.674 284.296 238.171 284.925 237.464 285.073 C 235.129 285.559 232.748 285.793 230.364 285.773 C 209.724 285.735 193.002 269.013 192.964 248.373 C 192.964 247.173 193.064 246.073 193.164 244.873 C 193.226 244.089 193.877 243.481 194.664 243.473 L 210.864 243.473 C 209.61 240.544 210.33 237.143 212.664 234.973 C 213.721 233.936 215.499 234.367 215.964 235.773 C 215.764 234.373 215.564 231.573 217.064 229.473 L 200.864 229.473 C 199.64 229.47 198.878 228.144 199.492 227.085 C 199.515 227.047 199.538 227.01 199.564 226.973 C 206.562 216.937 218.028 210.961 230.264 210.973 C 232.648 210.954 235.029 211.188 237.364 211.673 C 238.071 211.822 238.574 212.451 238.564 213.173 L 238.564 226.173 L 238.664 226.173 Z M 253.864 277.273 C 252.937 278.012 251.557 277.471 251.381 276.298 C 251.37 276.224 251.364 276.149 251.364 276.073 L 251.364 246.403 C 251.375 244.696 252.756 243.314 254.464 243.303 L 266.064 243.303 C 266.865 243.275 267.536 243.902 267.564 244.703 C 267.664 245.903 267.764 247.003 267.764 248.203 C 267.762 259.505 262.654 270.2 253.864 277.303 L 253.864 277.273 Z"/><g transform="matrix(1, 0, 0, 1, 169.23361206054688, 190.17333984375)"><g><g><path d="M48.73 56.23a10.11 10.11 0 0 1 4-2.9c.1-.2.2-.3.2-.5 3-6.3-1.1-9.4-1.1-9.4-1.5-1-1.5-3.6-1.5-4.3a.1.1 0 0 0-.1-.1c-2.9 1.9-1.6 6.6-1.6 6.6s1.2 2.6 0 3.4c-2.1 1.2-3.1-1.8-3.4-3.2-.1-.3-.3-.3-.5-.1a5.9 5.9 0 0 0-1.2 7.1 10.55 10.55 0 0 1 5.2 3.4z"/></g></g></g><g transform="matrix(1, 0, 0, 1, 169.23361206054688, 190.17333984375)"><path d="M55.73 74.43l1.2-1.2a3.68 3.68 0 0 0 .8-2.1c0-1.4-1.1-2.7-2.8-3.6a10.53 10.53 0 0 1-1.3 2.1c-.8.8.7 2.7.7 2.7a3.5 3.5 0 0 0-3.1-.7 6.21 6.21 0 0 1-3.1.8 2 2 0 0 1-.8-.1c-1.1-.3-1.5 1.1-1.5 1.1a1.84 1.84 0 0 0-.6-1.9 12.94 12.94 0 0 1-1.8-1.6 11.8 11.8 0 0 1-1.4-2.4c0-.1-.1-.1-.1-.2-.4.2-.8.5-1.2.7a2.65 2.65 0 0 0-.6.5c-.7 1.1.9 2 .9 2-2-.7-2.1.5-2.1.6a2.1 2.1 0 0 0 .5 1.5l9 9 7.3-7.2z"/></g><g transform="matrix(1, 0, 0, 1, 169.23361206054688, 190.17333984375)"><path d="M40.13 67.23a10.54 10.54 0 0 1 1.1-.7 4.69 4.69 0 0 0-3.1-1.1 3.08 3.08 0 0 0-1 .1c-1.2.6-.1 2-.1 2a2.42 2.42 0 0 0-2.6-.4 7 7 0 0 0 1.3 1.7l2.2 2.2c-.1-1.4.7-2.7 2.2-3.8z"/></g><g transform="matrix(1, 0, 0, 1, 169.23361206054688, 190.17333984375)"><path d="M38.13 64.23a5.73 5.73 0 0 1 4.2 1.7c.4-.1.7-.3 1.1-.4.6-.7.2-2.5.2-2.5a3.31 3.31 0 0 0 2.3 2 17.44 17.44 0 0 1 5.1.1c.4.1.7.1 1.1.2a3.47 3.47 0 0 0 2.1-1.9s-.4 2 .4 2.6a6 6 0 0 1 4.3-1.7h.4a3.47 3.47 0 0 0 2.1-1.9s-.5 2.3.6 2.7a3.13 3.13 0 0 1 1.1.9 8.6 8.6 0 0 0 .4-2.4 7.74 7.74 0 0 0-2.2-5.3 7.48 7.48 0 0 0-10.6 0 6.11 6.11 0 0 0-2.2 4.5c0-2.5-1.1-3.4-2.2-4.5a7.48 7.48 0 0 0-10.6 0 7.32 7.32 0 0 0-2.2 5.3 8.6 8.6 0 0 0 .4 2.4 5.64 5.64 0 0 1 4.2-1.8z"/></g><g transform="matrix(1, 0, 0, 1, 169.23361206054688, 190.17333984375)"><path d="M58.93 65.43a4.54 4.54 0 0 0-3.2 1.2l.9.6a5.24 5.24 0 0 1 1.1 1l.2.2c.6.5 1.6-.3 1.6-.3-.9.9-.9 1.6-.8 1.8V70a5 5 0 0 1 .2 1.2v.1l2.4-2.4a5.94 5.94 0 0 0 1.3-1.8 5 5 0 0 0-3.7-1.67z"/></g><g transform="matrix(1, 0, 0, 1, 169.23361206054688, 190.17333984375)"><path d="M49.23 66.13c-1.1.3-.8 2.6-.8 2.6a3.6 3.6 0 0 0-3-2.4 15.45 15.45 0 0 0-2.3.6.1.1 0 0 0 .1.1v.1s1.5 4.1 4.9 4.1a5.59 5.59 0 0 0 4.3-2.1 12.64 12.64 0 0 0 1.4-2.1 20.16 20.16 0 0 0-2.9-.8c-.6 0-1.1-.1-1.7-.1z"/></g><path d="M 263.364 213.503 C 244.701 196.171 215.827 196.171 197.164 213.503 C 188.91 221.256 183.548 231.591 181.964 242.803 C 182.864 242.903 183.664 242.703 184.564 242.803 C 189.554 207.606 230.776 191.01 258.762 212.931 C 259.763 213.715 260.731 214.54 261.664 215.403 C 269.383 222.663 274.422 232.319 275.964 242.803 L 276.664 242.803 C 277.299 242.789 277.934 242.823 278.564 242.903 C 276.981 231.662 271.621 221.294 263.364 213.503 Z"/><path d="M 268.864 278.103 C 274.007 271.315 277.345 263.333 278.564 254.903 C 277.696 254.922 276.828 254.889 275.964 254.803 C 274.839 262.697 271.706 270.169 266.864 276.503 C 267.485 277.091 268.154 277.626 268.864 278.103 L 268.864 278.103 Z"/><path d="M 193.964 277.003 C 188.94 270.619 185.666 263.037 184.464 255.003 L 183.764 255.003 C 183.129 255.017 182.494 254.984 181.864 254.903 C 183.066 263.705 186.664 272.007 192.264 278.903 C 192.864 278.303 193.364 277.703 193.964 277.003 Z"/><g transform="matrix(1, 0, 0, 1, 169.23361206054688, 190.17333984375)"><path d="M8.33 52.43h11.4v1.5H8.33z"/><path d="M8.33 64.23h11.4v1.5H8.33z"/><path d="M102.73 52.43h10v1.5h-10z"/><path d="M102.73 64.23h10v1.5h-10z"/></g><g transform="matrix(1, 0, 0, 1, 169.23361206054688, 190.17333984375)"><g><path d="M13.23 61a3.2 3.2 0 0 1-.7-.1v-4.6h-.9l-1.7 1.5.4.5.1.1c.1.1.3 0 .3 0s.1 0 .1-.1l.5-.4v3a3.78 3.78 0 0 0-.8.1c-.2 0-.2.1-.2.3v.5h3.1v-.5c.1-.17 0-.3-.2-.3z"/></g><g><path d="M17.53 56.83a2.09 2.09 0 0 0-.6-.4 2 2 0 0 0-.8-.1 2.2 2.2 0 0 0-.8.1 2.09 2.09 0 0 0-.6.4 1.27 1.27 0 0 0-.4.6 1.7 1.7 0 0 0-.1.7 1.48 1.48 0 0 0 .1.7 1 1 0 0 0 .4.5 2.19 2.19 0 0 0 .5.3 1.7 1.7 0 0 0 1 0l-1.7 2.1h1.1c.1 0 .3 0 .3-.1s.2-.1.2-.2l1.2-1.7a.76.76 0 0 0 .2-.4c.1-.2.1-.3.2-.4s.1-.3.1-.4V58a1.48 1.48 0 0 0-.1-.7c.1-.07 0-.3-.2-.47zm-1.3.5h.3a.22.22 0 0 1 .2.2l.2.2v.6a.35.35 0 0 1-.1.2l-.2.2c-.4.1-.7.1-.9-.1a.85.85 0 0 1-.2-.6v-.3a.35.35 0 0 1 .1-.2l.2-.2z"/></g><g><path d="M106.83 58.73a2.09 2.09 0 0 0-.6-.4 2.77 2.77 0 0 0-1.3-.1l.1-.8h1.3a.76.76 0 0 0 .5-.2.52.52 0 0 0 .2-.4v-.5h-2.7l-.5 2.7.7.2a1.7 1.7 0 0 1 .7-.1.71.71 0 0 1 .8.8c0 .2 0 .3-.1.4s-.1.2-.2.3-.2.2-.3.2-.2.1-.4.1a.37.37 0 0 1-.3-.1c-.1 0-.2-.1-.3-.1a.1.1 0 0 1-.1-.1h-.1c-.2-.1-.5-.1-.6.1l-.3.5.1.1c.1.1.2.2.3.2s.2.1.4.2a.6.6 0 0 0 .4.1 4.33 4.33 0 0 0 .5.1 2.2 2.2 0 0 0 .8-.1 2.51 2.51 0 0 0 .7-.4 2.09 2.09 0 0 0 .4-.6 1.88 1.88 0 0 0 .2-.8 1.48 1.48 0 0 0-.1-.7.45.45 0 0 0-.2-.6z"/></g><g><path d="M108.23 56.43V58h.5c.2 0 .3-.1.3-.2v-.3h1.7a.35.35 0 0 1-.1.2l-2.1 4.2h.9c.2 0 .3 0 .4-.1s.2-.2.2-.3l2-4.1a.1.1 0 0 1 .1-.1v-.8h-3.9z"/></g></g></svg>